<svg xmlns="http://www.w3.org/2000/svg" enable-background="new 0 0 70 70" viewBox="0 0 70 70" id="crypto-balance"><path fill="#5b52c5" d="M55.86,11.4v44.18c0,4.74-3.84,8.58-8.58,8.58H18.47c-4.73,0-8.57-3.84-8.57-8.58V11.4
				c0-4.73,3.84-8.57,8.57-8.57h28.81C52.02,2.83,55.86,6.67,55.86,11.4z"></path><path fill="#8f90fb" d="M58.86,14.4v44.18c0,4.74-3.84,8.58-8.58,8.58H21.47c-4.73,0-8.57-3.84-8.57-8.58V14.4
				c0-4.73,3.84-8.57,8.57-8.57h28.81C55.02,5.83,58.86,9.67,58.86,14.4z"></path><path fill="#fff" d="M52.86,14.42v42.17c0,1.42-1.16,2.58-2.58,2.58H21.47c-1.42,0-2.57-1.15-2.57-2.57V14.4
				c0-1.42,1.15-2.57,2.57-2.57h7.12c0.74,0,1.4,0.47,1.64,1.18l0.37,1.08c0.24,0.71,0.9,1.18,1.64,1.18h7.27
				c0.74,0,1.4-0.47,1.64-1.18l0.37-1.08c0.24-0.71,0.9-1.18,1.64-1.18h7.12C51.7,11.83,52.86,13,52.86,14.42z"></path><path fill="#5b52c5" d="M38.79 12.33h-3.43c-.28 0-.5-.22-.5-.5s.22-.5.5-.5h3.43c.28 0 .5.22.5.5S39.07 12.33 38.79 12.33zM33.46 12.33h-.67c-.28 0-.5-.22-.5-.5s.22-.5.5-.5h.67c.28 0 .5.22.5.5S33.73 12.33 33.46 12.33zM41.46 63.08H29.26c-.28 0-.5-.22-.5-.5s.22-.5.5-.5h12.19c.28 0 .5.22.5.5S41.73 63.08 41.46 63.08z"></path><g><path fill="#495e66" d="M40.96,23.02v27.05c0,0.32-0.05,0.63-0.15,0.91c-0.38,1.12-1.44,1.93-2.7,1.93h-4.47
			c-1.58,0-2.85-1.27-2.85-2.84V23.02c0-1.58,1.27-2.85,2.85-2.85h4.47c0.91,0,1.72,0.42,2.23,1.08
			C40.73,21.74,40.96,22.35,40.96,23.02z"></path></g><g><path fill="#fbe063" d="M60.1,36.05c0,8.52-6.9,15.42-15.42,15.42c-1.34,0-2.64-0.17-3.87-0.49c-4.42-1.14-8.07-4.19-10.02-8.22
							V29.34c1.88-3.88,5.35-6.86,9.55-8.09c1.38-0.4,2.83-0.62,4.34-0.62C53.2,20.63,60.1,27.53,60.1,36.05z"></path><circle cx="44.68" cy="36.05" r="10.16" fill="#f9a41a"></circle><g><path fill="#fbe063" d="M45.47,36.61H42.8c-0.28,0-0.5-0.22-0.5-0.5v-4.34c0-0.28,0.22-0.5,0.5-0.5h2.67c1.47,0,2.67,1.2,2.67,2.67
					c0,0.72-0.28,1.39-0.79,1.89C46.85,36.33,46.18,36.61,45.47,36.61z M43.3,35.61h2.17c0.44,0,0.86-0.17,1.18-0.49
					c0.32-0.31,0.49-0.73,0.49-1.18c0-0.92-0.75-1.67-1.67-1.67H43.3V35.61z"></path><path fill="#fbe063" d="M45.47,40.95H42.8c-0.28,0-0.5-0.22-0.5-0.5v-4.34c0-0.28,0.22-0.5,0.5-0.5h2.67c1.47,0,2.67,1.2,2.67,2.67
					c0,0.72-0.28,1.39-0.79,1.89C46.85,40.67,46.18,40.95,45.47,40.95z M43.3,39.95h2.17c0.44,0,0.86-0.17,1.18-0.49
					c0.32-0.31,0.49-0.73,0.49-1.18c0-0.92-0.75-1.67-1.67-1.67H43.3V39.95z"></path><path fill="#fbe063" d="M42.8 40.95h-1.07c-.28 0-.5-.22-.5-.5s.22-.5.5-.5h1.07c.28 0 .5.22.5.5S43.07 40.95 42.8 40.95zM42.8 32.27h-1.07c-.28 0-.5-.22-.5-.5 0-.28.22-.5.5-.5h1.07c.28 0 .5.22.5.5C43.3 32.05 43.07 32.27 42.8 32.27zM44.31 32.16c-.28 0-.5-.22-.5-.5v-1.07c0-.28.22-.5.5-.5s.5.22.5.5v1.07C44.81 31.94 44.59 32.16 44.31 32.16zM44.55 42.01c-.28 0-.5-.22-.5-.5v-1.07c0-.28.22-.5.5-.5s.5.22.5.5v1.07C45.05 41.79 44.83 42.01 44.55 42.01z"></path></g></g></svg>